<?xml version="1.0" encoding="utf-8"?>
<!-- Generator: Adobe Illustrator 24.3.0, SVG Export Plug-In . SVG Version: 6.00 Build 0)  -->
<svg version="1.1" id="Layer_1" xmlns="http://www.w3.org/2000/svg" xmlns:xlink="http://www.w3.org/1999/xlink" x="0px" y="0px"
	 viewBox="0 0 512 512" style="enable-background:new 0 0 512 512;" xml:space="preserve">
<style type="text/css">
	.st0{fill:#343434;}
</style>
<g id="XMLID_1_">
	<circle id="XMLID_2_" class="st0" cx="252.42" cy="256" r="60.72"/>
	<path id="XMLID_3_" class="st0" d="M4.31,191.55c0,0.69-0.69,2.21-0.69,2.9c0,6.64,5.12,12.45,12.45,12.45h103.17
		c5.12,0,8.71-2.9,10.93-7.33c21.16-46.88,68.05-78.28,121.43-78.28c73.85,0,133.88,60.02,133.88,133.88
		s-60.02,133.88-133.88,133.88c-54.08,0-100.27-32.22-121.43-77.59c-2.21-5.12-5.81-8.02-10.93-8.02H16.06
		c-6.64,0-12.45,5.12-12.45,12.45c0,0.69,0,2.21,0.69,2.9C32.8,429.99,133.07,512,252.28,512c141.21,0,256-114.93,256-256
		S393.49,0,252.42,0C133.07,0,32.94,81.88,4.31,191.55z"/>
</g>
</svg>
